<?xml version="1.0" encoding="UTF-8" standalone="no"?>
<svg
   xmlns:dc="http://purl.org/dc/elements/1.1/"
   xmlns:cc="http://creativecommons.org/ns#"
   xmlns:rdf="http://www.w3.org/1999/02/22-rdf-syntax-ns#"
   xmlns:svg="http://www.w3.org/2000/svg"
   xmlns="http://www.w3.org/2000/svg"
   xmlns:sodipodi="http://sodipodi.sourceforge.net/DTD/sodipodi-0.dtd"
   xmlns:inkscape="http://www.inkscape.org/namespaces/inkscape"
   inkscape:export-ydpi="245.75999"
   inkscape:export-xdpi="245.75999"
   inkscape:export-filename="C:\Users\jrbev\Downloads\bitmap.png"
   sodipodi:docname="icon-white.svg"
   inkscape:version="1.0 (4035a4fb49, 2020-05-01)"
   id="svg8"
   version="1.1"
   viewBox="0 0 90.169998 90.169998"
   height="90.169998mm"
   width="90.169998mm">
  <defs
     id="defs2">
    <style
       id="style920">.cls-1{fill:none;}</style>
  </defs>
  <sodipodi:namedview
     inkscape:document-rotation="0"
     showguides="false"
     inkscape:window-maximized="1"
     inkscape:window-y="-11"
     inkscape:window-x="2869"
     inkscape:window-height="2066"
     inkscape:window-width="3840"
     showgrid="false"
     inkscape:current-layer="layer1"
     inkscape:document-units="mm"
     inkscape:cy="128.21266"
     inkscape:cx="367.41005"
     inkscape:zoom="1.979899"
     inkscape:pageshadow="2"
     inkscape:pageopacity="0.0"
     borderopacity="1.0"
     bordercolor="#666666"
     pagecolor="#ffffff"
     id="base" />
  <metadata
     id="metadata5">
    <rdf:RDF>
      <cc:Work
         rdf:about="">
        <dc:format>image/svg+xml</dc:format>
        <dc:type
           rdf:resource="http://purl.org/dc/dcmitype/StillImage" />
        <dc:title></dc:title>
      </cc:Work>
    </rdf:RDF>
  </metadata>
  <g
     transform="translate(0,-206.83)"
     id="layer1"
     inkscape:groupmode="layer"
     inkscape:label="Layer 1">
    <path
       id="path16"
       d="m 45.07012,206.86611 c -12.12536,0 -23.26404,4.62057 -31.85749,13.21263 C 4.62056,228.67081 0,239.81087 0,251.93623 c 0,12.12536 4.62056,23.26404 13.21263,31.85611 7.21541,7.21541 16.23329,11.63064 26.43904,12.94392 4.00734,0.51676 10.15063,0.25493 14.53004,-0.61736 15.76613,-3.14193 29.23646,-15.35411 33.95762,-30.78538 4.95266,-16.19057 0.70417,-33.33888 -11.21172,-45.25478 -8.59345,-8.59206 -19.73213,-13.21263 -31.85749,-13.21263 z m -0.41066,3.53467 c 6.52226,-0.0592 13.04038,1.418 18.9811,4.39457 8.14145,4.07899 14.49145,10.42761 18.57044,18.57044 5.86356,11.70368 5.86356,25.43721 0,37.14089 -2.04638,4.08313 -4.0845,6.95495 -7.33116,10.32701 -6.86952,7.13549 -15.96457,11.48595 -26.08075,12.47401 -7.54476,0.73725 -15.33067,-0.74001 -22.29941,-4.23196 -4.08451,-2.04501 -6.95496,-4.08312 -10.32702,-7.32978 C 3.16535,269.2251 -0.18466,249.56187 7.92923,233.36579 c 4.87826,-9.73584 13.25673,-17.10145 23.51898,-20.67333 4.28432,-1.49104 8.74916,-2.25034 13.21125,-2.29168 z m 0,0"
       style="fill:#ffffff;fill-opacity:1;fill-rule:nonzero;stroke:none;stroke-width:0.352778"
       inkscape:connector-curvature="0" />
    <g
       transform="matrix(0.61358264,0,0,0.61358264,13.068104,218.69756)"
       id="g875"
       style="fill:#ffffff">
      <path
         d="M 49.338766,55.837586 H 46.412335 V 52.91729 H 43.491427 V 49.996999 H 40.57113 37.650222 v -2.920297 h -2.920294 -2.920295 v -2.920293 h -2.920296 -2.938702 -2.920293 v 2.920293 h -2.920294 -2.920297 v 2.920297 H 14.268842 11.348548 V 52.91729 H 8.4276368 v 2.920296 H 5.5012084 2.5809125 v 2.920297 2.920293 2.920294 2.920297 2.926429 2.932567 2.920293 2.920298 2.920291 2.9203 2.920903 h 2.9202959 2.9264284 v 2.920302 h 2.9209112 v 2.927042 h 2.920294 2.920909 v 2.920298 h 2.920297 2.920294 v 2.920289 h 2.920293 2.938702 2.920296 V 96.74749 h 2.920295 2.920294 v -2.920298 h 2.920908 2.920297 V 90.90015 h 2.920908 v -2.920302 h 2.926431 2.920295 v -2.920903 -2.9203 -2.920291 -2.920298 -2.920293 -2.932567 -2.926429 -2.920297 -2.920294 -2.920293 -2.920297 z M 25.951862,76.298671 v 2.920298 2.92029 2.920298 2.920905 2.920301 2.927044 H 23.031568 20.111274 V 90.900763 H 17.190977 14.270068 V 87.980462 H 11.349774 V 85.059557 H 8.4288655 5.5024351 V 82.139259 79.218969 76.298671 73.378374 70.44581 67.519381 64.599085 61.67879 h 2.9264304 v 2.920295 h 2.9209085 2.920294 v 2.920296 h 2.920909 v 2.926429 h 2.920297 2.920294 v 2.932564 h 2.920294 z M 49.338766,64.59847 v 2.920297 2.926429 2.932567 2.920293 2.920298 2.920291 2.9203 h -2.926431 -2.920908 v 2.920903 H 40.57113 v 2.920302 h -2.920908 -2.920294 v 2.927042 h -2.920295 -2.920296 v -2.927042 -2.920302 -2.920903 -2.9203 -2.920291 -2.920298 -2.920293 h 2.920296 v -2.932567 h 2.920295 2.920294 V 67.518767 H 40.57113 V 64.59847 h 2.920297 2.920908 v -2.920294 h 2.926431 z"
         id="path2"
         style="fill:#ffffff;fill-opacity:1;stroke:#345a93;stroke-width:0.214;stroke-miterlimit:4;stroke-dasharray:none;stroke-opacity:1"
         inkscape:connector-curvature="0" />
      <path
         inkscape:connector-curvature="0"
         d="M 72.718914,12.006779 H 69.792483 V 9.086485 H 66.871576 V 6.1661895 H 63.95128 61.030372 V 3.2458941 H 58.11008 55.189784 V 0.3255983 H 52.269489 49.330788 46.410494 V 3.2458941 H 43.4902 40.569904 V 6.1661895 H 37.648996 34.7287 V 9.086485 h -2.920909 v 2.920294 h -2.926429 -2.920296 v 2.920297 2.920295 2.920296 2.920294 2.92643 2.932565 2.920296 2.920295 2.920294 2.920296 2.920909 h 2.920296 2.926429 V 47.06934 H 34.7287 v 2.927045 h 2.920296 2.920908 v 2.920292 h 2.920296 2.920294 v 2.920297 h 2.920294 2.938701 2.920295 v -2.920297 h 2.920296 2.920292 v -2.920292 h 2.920908 2.920296 V 47.06934 h 2.920907 v -2.920294 h 2.926431 2.920296 v -2.920909 -2.920296 -2.920294 -2.920295 -2.920296 -2.932565 -2.92643 -2.920294 -2.920296 -2.920295 -2.920297 z M 49.332016,32.467864 v 2.920295 2.920295 2.920296 2.920908 2.920293 2.927048 H 46.411721 43.491427 V 47.069951 H 40.57113 37.650222 V 44.149658 H 34.729928 V 41.22875 h -2.920909 -2.92643 V 38.308454 35.388159 32.467864 29.54757 26.615005 23.688576 20.768278 17.847983 h 2.92643 v 2.920295 h 2.920909 2.920294 v 2.920298 h 2.920908 v 2.926429 h 2.920297 2.920294 v 2.932565 h 2.920295 z M 72.718914,20.767667 v 2.920294 2.92643 2.932565 2.920296 2.920295 2.920294 2.920296 h -2.926431 -2.920907 v 2.920909 H 63.95128 V 47.06934 H 61.030372 58.11008 v 2.927045 H 55.189784 52.269489 V 47.06934 44.149046 41.228137 38.307841 35.387547 32.467252 29.546956 h 2.920295 v -2.932565 h 2.920296 2.920292 v -2.92643 h 2.920908 v -2.920294 h 2.920296 2.920907 v -2.920296 h 2.926431 z"
         id="path2-7-7"
         style="fill:#ffffff;fill-opacity:1;stroke:#345a93;stroke-width:0.214;stroke-miterlimit:4;stroke-dasharray:none;stroke-opacity:1" />
      <path
         d="M 96.100898,55.830224 H 93.174482 V 52.909929 H 90.253568 V 49.989635 H 87.33327 84.412364 V 47.06934 h -2.920293 -2.920296 v -2.920293 h -2.920297 -2.938699 -2.920296 v 2.920293 h -2.920294 -2.920294 v 2.920295 h -2.920911 -2.920296 v 2.920294 h -2.920909 v 2.920295 H 52.26335 49.343056 v 2.920296 2.920294 2.920294 2.920297 2.926429 2.932567 2.920293 2.9203 2.92029 2.920299 2.920904 h 2.920294 2.926429 v 2.9203 h 2.920909 v 2.927043 h 2.920296 2.920911 v 2.9203 h 2.920294 2.920294 v 2.920289 h 2.920296 2.938699 2.920297 V 96.74013 h 2.920296 2.920293 v -2.9203 h 2.920906 2.920298 v -2.927043 h 2.920914 v -2.9203 h 2.926416 2.920318 v -2.920904 -2.920299 -2.92029 -2.9203 -2.920293 -2.932567 -2.926429 -2.920297 -2.920294 -2.920294 -2.920296 z M 72.714004,76.291308 v 2.9203 2.920291 2.920298 2.920904 2.920299 2.927044 H 69.793711 66.873416 V 90.8934 H 63.953119 61.03221 v -2.920299 h -2.920294 v -2.920904 h -2.920908 -2.926431 v -2.920298 -2.920291 -2.9203 -2.920294 -2.932565 -2.92643 -2.920296 -2.920295 h 2.926431 v 2.920295 h 2.920908 2.920294 v 2.920296 h 2.920909 v 2.92643 h 2.920297 2.920295 v 2.932565 h 2.920293 z m 23.386894,-11.7002 v 2.920297 2.926429 2.932567 2.920293 2.9203 2.92029 2.920299 h -2.926416 -2.920914 v 2.920904 H 87.33327 v 2.9203 h -2.920906 -2.920293 v 2.927043 h -2.920296 -2.920297 v -2.927043 -2.9203 -2.920904 -2.920299 -2.92029 -2.9203 -2.920293 h 2.920297 v -2.932567 h 2.920296 2.920293 v -2.926429 h 2.920906 v -2.920297 h 2.920298 2.920914 v -2.920294 h 2.926416 z"
         id="path2-9"
         style="fill:#ffffff;fill-opacity:1;stroke:#345a93;stroke-width:0.214;stroke-miterlimit:4;stroke-dasharray:none;stroke-opacity:1"
         inkscape:connector-curvature="0" />
    </g>
  </g>
</svg>
